<?xml version="1.0" encoding="iso-8859-1"?>
<!-- Generator: Adobe Illustrator 19.0.0, SVG Export Plug-In . SVG Version: 6.00 Build 0)  -->
<svg version="1.1" id="Capa_1" xmlns="http://www.w3.org/2000/svg" xmlns:xlink="http://www.w3.org/1999/xlink" x="0px" y="0px"
	 viewBox="0 0 512 512" style="enable-background:new 0 0 512 512;" fill="currentColor">
<g>
	<g>
		<path d="M256,0C150.135,0,64,86.125,64,192v245c0,3.729,1.958,7.208,5.156,9.125l106.667,64.333
			c1.698,1.021,3.604,1.542,5.51,1.542c1.802,0,3.615-0.458,5.25-1.375c3.344-1.896,5.417-5.438,5.417-9.292V266.667
			c0-5.896-4.771-10.667-10.667-10.667C151.927,256,128,232.083,128,202.667V192h65.938c11.24,0,20.594,8.792,21.292,20
			l8.792,140.667c0.354,5.625,5.01,10,10.646,10h42.667c5.635,0,10.292-4.375,10.646-10L296.771,212
			c0.698-11.208,10.052-20,21.292-20H384v10.667C384,232.083,360.073,256,330.667,256c-2.833,0-5.542,1.125-7.542,3.125
			S320,263.833,320,266.667l0.01,234.667c0,3.854,2.073,7.396,5.427,9.292c3.344,1.875,7.458,1.813,10.75-0.167l106.656-64.333
			c3.198-1.917,5.156-5.396,5.156-9.125V192C448,86.125,361.865,0,256,0z"/>
	</g>
</g>
<g>
</g>
<g>
</g>
<g>
</g>
<g>
</g>
<g>
</g>
<g>
</g>
<g>
</g>
<g>
</g>
<g>
</g>
<g>
</g>
<g>
</g>
<g>
</g>
<g>
</g>
<g>
</g>
<g>
</g>
</svg>
