<?xml version="1.0" encoding="iso-8859-1"?>
<!-- Generator: Adobe Illustrator 19.0.0, SVG Export Plug-In . SVG Version: 6.00 Build 0)  -->
<svg version="1.1" id="Capa_1" xmlns="http://www.w3.org/2000/svg" xmlns:xlink="http://www.w3.org/1999/xlink" x="0px" y="0px"
	 viewBox="0 0 512 512" style="enable-background:new 0 0 512 512;" xml:space="preserve" fill="currentColor">
<g>
	<g>
		<path d="M501.351,91.645c-6.299-1.919-13.169,0.542-16.831,6.035c-17.047,25.571-41.316,45.939-68.006,60.372
			c23.95,24.355,42.127,54.131,52.996,87.175C495.896,215.448,512,176.923,512,136v-30C512,99.394,507.679,93.564,501.351,91.645z"
			/>
	</g>
</g>
<g>
	<g>
		<path d="M27.48,97.68c-3.662-5.493-10.532-7.954-16.831-6.035C4.321,93.564,0,99.394,0,106v30
			c0,40.922,16.11,79.449,42.494,109.228c10.869-33.036,29.049-62.808,53.014-87.163C68.808,143.631,44.533,123.258,27.48,97.68z"/>
	</g>
</g>
<g>
	<g>
		<circle cx="256" cy="391" r="30"/>
	</g>
</g>
<g>
	<g>
		<path d="M61,316v15h135V130.504C117.682,155.823,61,229.254,61,316z"/>
	</g>
</g>
<g>
	<g>
		<path d="M316,130.504V331h135v-15C451,229.254,394.318,155.823,316,130.504z"/>
	</g>
</g>
<g>
	<g>
		<path d="M204.344,361H46c-8.284,0-15,6.714-15,15v30c0,8.284,6.716,15,15,15h158.344c-5.167-8.86-8.344-19.022-8.344-30
			C196,380.023,199.177,369.86,204.344,361z"/>
	</g>
</g>
<g>
	<g>
		<path d="M466,361H307.656c5.167,8.86,8.344,19.023,8.344,30s-3.177,21.14-8.344,30H466c8.284,0,15-6.716,15-15v-30
			C481,367.715,474.284,361,466,361z"/>
	</g>
</g>
<g>
	<g>
		<path d="M271,91h-30c-8.284,0-15,6.714-15,15v233.344c8.86-5.167,19.023-8.344,30-8.344s21.14,3.177,30,8.345V106
			C286,97.714,279.284,91,271,91z"/>
	</g>
</g>
<g>
</g>
<g>
</g>
<g>
</g>
<g>
</g>
<g>
</g>
<g>
</g>
<g>
</g>
<g>
</g>
<g>
</g>
<g>
</g>
<g>
</g>
<g>
</g>
<g>
</g>
<g>
</g>
<g>
</g>
</svg>
