<svg width="42" height="82" viewBox="0 0 42 82" fill="none" xmlns="http://www.w3.org/2000/svg" xmlns:xlink="http://www.w3.org/1999/xlink">
<mask id="mask0" mask-type="alpha" maskUnits="userSpaceOnUse" x="-918" y="0" width="960" height="219">
<path fill-rule="evenodd" clip-rule="evenodd" d="M42 82V219H-918V0L29.1567 0C12.2426 5.42646 0 21.2835 0 40C0 63.196 18.804 82 42 82Z" fill="#111111"/>
</mask>
<g mask="url(#mask0)">
<mask id="path-2-outside-1" maskUnits="userSpaceOnUse" x="-922" y="-4" width="968" height="86" fill="black">
<rect fill="white" x="-922" y="-4" width="968" height="86"/>
<path fill-rule="evenodd" clip-rule="evenodd" d="M42 0H-918V42V74H-622L-604 42H-78L-58 78H42V42V0Z"/>
</mask>
<path fill-rule="evenodd" clip-rule="evenodd" d="M42 0H-918V42V74H-622L-604 42H-78L-58 78H42V42V0Z" fill="#111111"/>
<path d="M-918 0V-4H-922V0H-918ZM42 0H46V-4H42V0ZM-918 74H-922V78H-918V74ZM-622 74V78H-619.661L-618.514 75.961L-622 74ZM-604 42V38H-606.339L-607.486 40.039L-604 42ZM-78 42L-74.5034 40.0574L-75.6464 38H-78V42ZM-58 78L-61.4966 79.9426L-60.3536 82H-58V78ZM42 78V82H46V78H42ZM-918 4H42V-4H-918V4ZM-914 42V0H-922V42H-914ZM-914 74V42H-922V74H-914ZM-622 70H-918V78H-622V70ZM-607.486 40.039L-625.486 72.039L-618.514 75.961L-600.514 43.961L-607.486 40.039ZM-78 38H-604V46H-78V38ZM-54.5034 76.0574L-74.5034 40.0574L-81.4966 43.9426L-61.4966 79.9426L-54.5034 76.0574ZM42 74H-58V82H42V74ZM38 42V78H46V42H38ZM38 0V42H46V0H38Z" fill="currentColor" mask="url(#path-2-outside-1)"/>
</g>
</svg>
