<?xml version="1.0" encoding="utf-8"?>
<!-- Generator: Adobe Illustrator 24.2.3, SVG Export Plug-In . SVG Version: 6.00 Build 0)  -->
<svg version="1.1" xmlns="http://www.w3.org/2000/svg" xmlns:xlink="http://www.w3.org/1999/xlink" x="0px" y="0px"
	 viewBox="0 0 1400 1400" style="enable-background:new 0 0 1400 1400;">
<style type="text/css">
	.st0{fill:#010F16;}
	.st1{display:none;}
	.st2{display:inline;}
	.st3{fill:#FFFFFF;}
	.st4{fill:#0047F8;}
	.st5{fill:#D63E2A;}
</style>
<g id="BG">
	<rect y="-2" class="st0" width="1400" height="1400"/>
</g>
<g id="Logo">
	<path class="st3" d="M690.7,772.3l111.5-64.6l-0.3,57.4l67.3,38.9l182.6-106.3L725.9,509.5v78.6l80.3,46.4l-115.5,67.4V772.3z
		 M867.3,669.9l49.2,28.4l-49.2,28.5V669.9z"/>
	<polygon class="st4" points="690.7,592.1 628.1,628.5 628.1,531.5 562.4,493.5 562.4,549.4 597.5,549.4 597.5,614.6 562.4,614.6 
		562.4,666.7 489.6,708.7 489.6,372.9 690.7,489.2 	"/>
	<polygon class="st5" points="767.2,785.2 562.4,905.1 562.4,776.5 597.5,756.1 597.5,826.8 655.3,793.2 655.3,653.5 489.6,749.9 
		489.6,1025 834.7,824.2 	"/>
</g>
</svg>
