<?xml version="1.0" encoding="UTF-8"?>
<!-- Created with Inkscape (http://www.inkscape.org/) -->
<svg width="148.75mm" height="172.53mm" version="1.1" viewBox="0 0 148.75 172.53" xmlns="http://www.w3.org/2000/svg">
 <g transform="translate(-48.653 -28.043)">
  <g transform="matrix(.26458 0 0 .26458 -80.887 -70.62)">
   <g id="Logo">
    <path class="st3" d="m690.7 772.3 111.5-64.6-0.3 57.4 67.3 38.9 182.6-106.3-325.9-188.2v78.6l80.3 46.4-115.5 67.4zm176.6-102.4 49.2 28.4-49.2 28.5z" fill="#fff"/>
    <polygon class="st4" points="597.5 549.4 597.5 614.6 562.4 614.6 562.4 666.7 489.6 708.7 489.6 372.9 690.7 489.2 690.7 592.1 628.1 628.5 628.1 531.5 562.4 493.5 562.4 549.4" fill="#0047f8"/>
    <polygon class="st5" points="655.3 793.2 655.3 653.5 489.6 749.9 489.6 1025 834.7 824.2 767.2 785.2 562.4 905.1 562.4 776.5 597.5 756.1 597.5 826.8" fill="#d63e2a"/>
   </g>
  </g>
 </g>
 <style type="text/css">.st0{fill:#010F16;}
	.st1{display:none;}
	.st2{display:inline;}
	.st3{fill:#FFFFFF;}
	.st4{fill:#0047F8;}
	.st5{fill:#D63E2A;}</style>
</svg>
