<svg width="16" height="16" viewBox="0 0 16 16" fill="none" xmlns="http://www.w3.org/2000/svg">
<path d="M13.3925 10.2544V7.26266C13.1865 7.33745 12.9647 7.37791 12.7336 7.37791H9.6374V8.85741H8.49455V9.24076H7.51496V8.85741H6.37211V7.37791H3.27596C3.04477 7.37791 2.82305 7.33741 2.61702 7.26266V10.256C2.61702 10.256 1.11499 9.96366 1.11499 11.6973V13.6892C1.11499 14.2462 1.47396 14.6978 1.91671 14.6978H2.61702V14.607C2.61702 15.375 3.24199 16 4.00999 16H11.9996C12.737 16 13.3423 15.4236 13.3893 14.6977H14.0834C14.5261 14.6977 14.8851 14.2462 14.8851 13.6892V11.6973C14.8851 10.0443 13.5195 10.2332 13.3925 10.2544ZM13.383 14.5446H2.61696V13.565H13.383V14.5446H13.383Z" fill="white" fill-opacity="0.2"/>
<path d="M9.80062 1.72516V1.00409C9.80062 0.450406 9.35022 0 8.79653 0H7.21284C6.65918 0 6.20875 0.450406 6.20875 1.00409V1.72516H2.31262V5.43509C2.31262 5.71134 2.42953 5.96113 2.61693 6.13681C2.78934 6.29909 3.02084 6.39838 3.27587 6.39838H12.7335C12.9885 6.39838 13.22 6.29913 13.3924 6.13681C13.5799 5.96113 13.6967 5.71134 13.6967 5.43509V1.72516H9.80062ZM8.82103 1.72516H7.18837V1.00409C7.18837 0.990562 7.19937 0.979594 7.21287 0.979594H8.79656C8.81006 0.979594 8.82106 0.990562 8.82106 1.00409V1.72516H8.82103Z" fill="white" fill-opacity="0.2"/>
<path d="M8.65793 7.4024H7.35181V7.87784H8.65793V7.4024Z" fill="white" fill-opacity="0.2"/>
</svg>
